<svg width="24" height="23" viewBox="0 0 24 23" fill="none" xmlns="http://www.w3.org/2000/svg">
<path d="M0.45269 7.10956L7.38233 0.179919L8.37228 1.16987L5.50143 8.09951L5.55093 8.14901L10.4512 3.24876L11.3421 4.13971L4.41249 11.0694L3.42254 10.0794L6.29339 3.14977L6.24389 3.10027L1.34364 8.00052L0.45269 7.10956ZM5.7988 12.4557L12.7284 5.52603L16.0943 8.89186L15.4013 9.58482L12.9264 7.10995L10.6496 9.38683L12.8274 11.5647L12.1345 12.2577L9.95659 10.0798L7.38272 12.6537L9.85759 15.1285L9.16463 15.8215L5.7988 12.4557ZM10.899 17.5558L16.6902 9.48776L17.5811 10.3787L13.1264 16.6154L13.1759 16.6649L18.3236 13.695L19.2145 14.586L16.2447 19.7337L16.2942 19.7832L22.5309 15.3285L23.4218 16.2194L15.3537 22.0106L14.2648 20.9217L17.3039 15.6452L17.2643 15.6056L11.9879 18.6448L10.899 17.5558Z" fill="white"/>
</svg>
